<?xml version="1.0" encoding="UTF-8" standalone="no"?>
<svg
   xmlns:dc="http://purl.org/dc/elements/1.1/"
   xmlns:cc="http://creativecommons.org/ns#"
   xmlns:rdf="http://www.w3.org/1999/02/22-rdf-syntax-ns#"
   xmlns:svg="http://www.w3.org/2000/svg"
   xmlns="http://www.w3.org/2000/svg"
   id="svg237"
   version="1.1"
   viewBox="0 0 12.7 12.7"
   height="48"
   width="48">
  <defs
     id="defs231" />
  <metadata
     id="metadata234">
    <rdf:RDF>
      <cc:Work
         rdf:about="">
        <dc:format>image/svg+xml</dc:format>
        <dc:type
           rdf:resource="http://purl.org/dc/dcmitype/StillImage" />
        <dc:title></dc:title>
      </cc:Work>
    </rdf:RDF>
  </metadata>
  <g
     id="layer1">
    <path
       d="m 6.3495149,0.74526682 c -3.1728842,0 -5.7460448,2.57280798 -5.7460448,5.74674998 0,2.538941 1.6464138,4.6926502 3.9299446,5.4525332 0.287514,0.05292 0.392289,-0.124531 0.392289,-0.276931 0,-0.136525 -0.0049,-0.497769 -0.0078,-0.977194 -1.598437,0.347133 -1.935692,-0.7704672 -1.935692,-0.7704672 -0.2614084,-0.663927 -0.638175,-0.840669 -0.638175,-0.840669 -0.5217583,-0.356306 0.039511,-0.34925 0.039511,-0.34925 0.576792,0.04057 0.88018,0.592314 0.88018,0.592314 0.512587,0.8780642 1.345142,0.624416 1.67252,0.477308 0.05221,-0.371122 0.20073,-0.624416 0.364772,-0.767997 -1.275997,-0.144992 -2.6176109,-0.638175 -2.6176109,-2.840214 0,-0.627239 0.2240139,-1.14053 0.5916079,-1.541991 -0.05927,-0.145345 -0.256469,-0.729898 0.05644,-1.520825 0,0 0.482248,-0.154517 1.580092,0.589138 0.458259,-0.127705 0.9500312,-0.191205 1.4386282,-0.193675 0.488245,0.0025 0.979664,0.06597 1.438628,0.193675 1.097139,-0.743655 1.57868,-0.589138 1.57868,-0.589138 0.31362,0.790927 0.116417,1.37548 0.0575,1.520825 0.3683,0.401461 0.5905501,0.914752 0.5905501,1.541991 0,2.207683 -1.3437301,2.693458 -2.6236081,2.835628 0.206022,0.177447 0.38982,0.528108 0.38982,1.0639782 0,0.76835 -0.0071,1.38818 -0.0071,1.576563 0,0.153812 0.103716,0.33267 0.395111,0.276578 C 10.451527,11.18255 12.09653,9.0302528 12.09653,6.4920168 c 0,-3.173942 -2.5731611,-5.74674998 -5.7471021,-5.74674998"
       style="fill:#ffffff;fill-opacity:1;fill-rule:evenodd;stroke:none;stroke-width:0.0352777"
       id="path132" />
  </g>
</svg>
